<?xml version="1.0" encoding="UTF-8"?>
<!DOCTYPE svg PUBLIC "-//W3C//DTD SVG 1.1//EN" "http://www.w3.org/Graphics/SVG/1.1/DTD/svg11.dtd">
<!-- Creator: CorelDRAW X7 -->
<svg xmlns="http://www.w3.org/2000/svg" xml:space="preserve" width="18.8891mm" height="17.8605mm" version="1.1" style="shape-rendering:geometricPrecision; text-rendering:geometricPrecision; image-rendering:optimizeQuality; fill-rule:evenodd; clip-rule:evenodd"
viewBox="0 0 2030 1920"
 xmlns:xlink="http://www.w3.org/1999/xlink">
 <defs>
  <style type="text/css">
   <![CDATA[
    .fil1 {fill:#0079A8}
    .fil0 {fill:white}
   ]]>
  </style>
 </defs>
 <g id="Layer_x0020_1">
  <metadata id="CorelCorpID_0Corel-Layer"/>
  <g id="_1503222227248">
   <rect class="fil0" x="119" width="1900" height="1878"/>
   <path class="fil1" d="M51 1901l-6 0c0,-4 -2,-8 -2,-10 0,-2 0,-5 -5,-5l-9 0 0 15 -5 0 0 -34 14 0c7,0 11,2 11,8 0,5 -1,7 -3,8 2,2 3,3 3,6l0 7c0,1 0,1 2,1l0 4zm-6 -24c0,-5 -4,-5 -5,-5l-11 0 0 10 9 0c3,0 7,-2 7,-5l0 0zm27 6c0,-19 -16,-35 -37,-35 -19,0 -35,16 -35,35 0,21 16,37 35,37 21,0 37,-16 37,-37l0 0zm-5 0c0,18 -14,30 -32,30 -17,0 -30,-12 -30,-30 0,-16 13,-30 30,-30 18,0 32,14 32,30z"/>
   <path class="fil1" d="M2030 1239c0,48 -30,70 -84,70l-104 0 0 -47 104 0c9,0 17,-2 21,-5 3,-3 6,-8 6,-15 0,-6 -3,-12 -6,-15 -4,-4 -10,-5 -20,-5 -49,-2 -111,1 -111,-69 0,-32 21,-67 76,-67l107 0 0 48 -99 0c-9,0 -16,0 -20,3 -5,5 -8,10 -8,18 0,8 4,13 11,16 6,1 13,3 21,3l28 0c31,0 50,6 62,17 10,12 16,26 16,48l0 0zm-224 -48c-13,-11 -32,-17 -63,-17l-28 0c-8,0 -15,-2 -21,-3 -6,-3 -11,-8 -11,-16 0,-8 2,-13 8,-18 5,-3 11,-3 21,-3l98 0 0 -48 -106 0c-58,0 -77,35 -77,67 0,70 62,67 112,69 9,0 16,1 19,5 3,3 6,9 6,15 0,7 -3,12 -6,15 -5,3 -11,5 -21,5l-103 0 0 47 103 0c54,0 85,-22 85,-70 0,-22 -7,-36 -16,-48l0 0zm-204 72l-126 0 0 -44 122 0 0 -45 -122 0 0 -41 126 0 0 -47 -179 0 0 223 179 0 0 -46zm-236 -166c-18,-9 -38,-11 -66,-11l-122 0 0 223 54 0 0 -81 57 0c19,0 31,2 39,10 9,11 9,30 9,44l0 27 53 0 0 -43c0,-20 -2,-30 -8,-41 -5,-6 -15,-14 -27,-19 14,-5 38,-24 38,-59 0,-26 -10,-40 -27,-50l0 0zm-303 -11l-171 0 -68 74 -65 -74 -216 0 0 223 212 0 69 -73 65 73 104 0 0 -75 67 0c46,0 92,-12 92,-74 0,-61 -48,-74 -89,-74l0 0zm260 93c-8,3 -16,3 -26,3l-65 1 0 -50 65 0c10,0 19,0 26,4 6,3 11,10 11,19 0,10 -5,18 -11,23l0 0zm-260 11l-70 0 0 -57 70 0c19,0 32,7 32,27 0,19 -13,30 -32,30l0 0zm-206 8l83 -88 0 180 -83 -92zm-129 65l-132 0 0 -44 118 0 0 -45 -118 0 0 -41 134 0 59 65 -61 65zm1154 -338l-76 0 -101 -167 0 167 -108 0 -21 -49 -111 0 -21 49 -62 0c-26,0 -59,-6 -78,-25 -18,-19 -27,-45 -27,-85 0,-33 4,-63 28,-87 16,-18 45,-26 81,-26l51 0 0 48 -51 0c-19,0 -30,3 -41,13 -10,9 -14,27 -14,51 0,24 4,41 14,52 8,8 22,12 37,12l24 0 76 -176 80 0 89 211 0 -211 83 0 94 155 0 -155 54 0 0 223zm-633 -223l-54 0 0 223 54 0 0 -223zm-113 10c-17,-10 -36,-10 -63,-10l-123 0 0 223 52 0 0 -81 58 0c19,0 32,2 40,10 9,11 8,30 8,43l0 28 54 0 0 -44c0,-19 -2,-29 -10,-40 -5,-7 -14,-14 -25,-19 14,-7 38,-24 38,-59 0,-26 -11,-40 -29,-51l0 0zm-224 167l-125 0 0 -45 123 0 0 -46 -123 0 0 -40 125 0 0 -46 -179 0 0 223 179 0 0 -46zm-219 -177l-87 0 -66 152 -70 -152 -86 0 0 211 -91 -211 -79 0 -96 223 57 0 21 -49 112 0 20 49 109 0 0 -175 78 175 46 0 78 -175 0 175 54 0 0 -223zm864 126l-37 -88 -36 88 73 0zm-462 -35c-8,5 -16,5 -27,5l-66 0 0 -50 66 0c9,0 20,0 27,4 6,4 9,11 9,20 0,10 -3,18 -9,21l0 0zm-880 35l37 -88 36 88 -73 0zm1803 -825l-1902 0 0 803 66 -148 138 0 19 36 0 -36 163 0 37 79 35 -79 518 0c24,0 44,4 60,17l0 -17 142 0 0 17c24,-13 54,-17 89,-17l206 0 19 36 0 -36 151 0 23 36 0 -36 148 0 0 312 -150 0 -29 -48 0 48 -186 0 -21 -51 -46 0 -21 51 -97 0c-38,0 -67,-10 -86,-19l0 19 -231 0 0 -72c0,-9 -2,-11 -8,-11l-8 0 0 83 -446 0 0 -40 -16 40 -94 0 -16 -38 0 38 -180 0 -19 -51 -47 0 -20 51 -93 0 0 942 1902 0 0 -572c-21,9 -50,14 -79,14l-138 0 0 -19c-16,13 -45,19 -72,19l-437 0 0 -72c0,-9 -1,-9 -9,-9l-8 0 0 81 -143 0 0 -84c-24,11 -51,11 -75,11l-16 0 0 73 -176 0 -41 -48 -46 48 -282 0 0 -312 286 0 42 47 45 -47 192 0c23,0 59,3 75,19l0 -19 172 0c18,0 51,3 74,19l0 -19 259 0 0 19c15,-13 42,-19 66,-19l145 0 0 19c16,-11 38,-19 67,-19l99 0 0 -1039z"/>
  </g>
 </g>
</svg>
