<?xml version="1.0" encoding="UTF-8"?>
<!DOCTYPE svg PUBLIC "-//W3C//DTD SVG 1.1//EN" "http://www.w3.org/Graphics/SVG/1.1/DTD/svg11.dtd">
<!-- Creator: CorelDRAW X7 -->
<svg xmlns="http://www.w3.org/2000/svg" xml:space="preserve" width="33.6612mm" height="20.8063mm" version="1.1" style="shape-rendering:geometricPrecision; text-rendering:geometricPrecision; image-rendering:optimizeQuality; fill-rule:evenodd; clip-rule:evenodd"
viewBox="0 0 1392 860"
 xmlns:xlink="http://www.w3.org/1999/xlink">
 <defs>
  <style type="text/css">
   <![CDATA[
    .fil2 {fill:#F9A140;fill-rule:nonzero}
    .fil0 {fill:#F2703B;fill-rule:nonzero}
    .fil1 {fill:#EE373F;fill-rule:nonzero}
   ]]>
  </style>
 </defs>
 <g id="Layer_x0020_1">
  <metadata id="CorelCorpID_0Corel-Layer"/>
  <polygon class="fil0" points="884,768 508,768 508,92 884,92 "/>
  <path class="fil1" d="M532 430c0,-137 64,-259 164,-338 -73,-58 -166,-92 -266,-92 -237,0 -430,193 -430,430 0,238 193,430 430,430 100,0 193,-34 266,-92 -100,-78 -164,-201 -164,-338z"/>
  <path class="fil2" d="M1392 430c0,238 -193,430 -430,430 -101,0 -193,-34 -266,-92 100,-78 164,-201 164,-338 0,-137 -64,-259 -164,-338 73,-58 165,-92 266,-92 237,0 430,193 430,430z"/>
 </g>
</svg>
